<?xml version="1.0" encoding="UTF-8"?>
<svg xmlns="http://www.w3.org/2000/svg" width="200" height="200" viewBox="0 0 100 100" fill="none">

  <defs><clipPath id="mc"><polygon points="50,5 95,50 50,95 5,50"></polygon></clipPath></defs>
  <polygon points="50,5 5,50 50,95" fill="#1C1438" clip-path="url(#mc)"></polygon>
  <polygon points="50,5 95,50 50,95" fill="#1C1438" clip-path="url(#mc)"></polygon>
  <polygon points="50,5 95,50 50,95 5,50" stroke="#1C1438" stroke-width="1.8" fill="none" stroke-linejoin="round"></polygon>
  <path d="M 34,32 H 42 Q 44,32 44,34 V 53 L 52,61 H 65 Q 67,61 67,63 V 69 Q 67,71 65,71 H 34 Q 32,71 32,69 V 34 Q 32,32 34,32 Z" fill="white"></path>

</svg>