<svg width="400" height="400" viewBox="0 0 120 120" fill="none" xmlns="http://www.w3.org/2000/svg">
  
  <rect width="120" height="120" fill="#0B0A14"></rect>
  <defs>
    <clipPath id="clip">
      <polygon points="60,15 105,60 60,105 15,60"></polygon>
    </clipPath>
  </defs>
  <polygon points="60,15 15,60 60,105" fill="#1C1438" clip-path="url(#clip)"></polygon>
  <polygon points="60,15 105,60 60,105" fill="#7C5CBF" clip-path="url(#clip)"></polygon>
  <line x1="60" y1="15" x2="60" y2="105" stroke="#C4A0FF" stroke-width="1.6" clip-path="url(#clip)"></line>
  <polygon points="60,15 105,60 60,105 15,60" stroke="white" stroke-width="1.8" fill="none" stroke-linejoin="round"></polygon>
  <path d="M 44,42 H 52 Q 54,42 54,44 V 63 L 62,71 H 75 Q 77,71 77,73 V 79 Q 77,81 75,81 H 44 Q 42,81 42,79 V 44 Q 42,42 44,42 Z" fill="white"></path>
</svg>